<svg xmlns="http://www.w3.org/2000/svg" fill="none" stroke-linecap="round" stroke-linejoin="round" stroke="#fff" stroke-width="1" viewBox="0 0 96 96">
  <path  d="M12.1 19.68c4.09 0 5.36-3.17 5.36-7.3 0-4.64-1.7-7.42-5.45-7.42m8.06 15.48-3.38-3.38m4.83-2.7L19.47 14l-2.05-.35m3.85-5.06-3.95 1.05M14 2.88v2.23m-1.9 14.57c-4.09 0-5.54-3.17-5.54-7.3 0-4.64 1.7-7.42 5.45-7.42M6.7 9.64h10.63M12.1 19.68l-.05-10.04M2.75 8.6l3.94 1.05m3.33-6.75v2.23m-6.08 15.3 3.39-3.38m-4.84-2.69 4.1-.72"/>
  <path d="m40.42 16.91 2.46-2.45L45.33 12l-4.9-4.91m-8.9 0L26.62 12l4.91 4.91m6.5-13.75-3.92 17.69"/>
  <path  d="m56.97 5.67.15 4.87c.05 1.74-2 3.65-2.98 5.36-1.83 3.15-1.9 5.37 5.86 5.37m3.04-15.6-.15 4.87c-.05 1.75 2 3.65 2.98 5.36 1.83 3.15 1.9 5.37-5.87 5.37m-1.4-9.91h1.34M58.57 10h2.01m-2.01-1.34h1.34m-1.43-1.34h2m-5.82 8c6.2 2.7 3.92-2.32 11.91 2.34M64.6 4.19a4.73 1.32 0 0 1-4.68 1.33 4.73 1.32 0 0 1-4.78-1.3 4.73 1.32 0 0 1 4.56-1.35 4.73 1.32 0 0 1 4.89 1.26"/>
  <path  d="M84.1 12.1v9.07M76.09 7.51l4.01 2.3 4.02 2.3 7.86-4.54m-7.86-4.48L76.08 7.5l-.06 9.06 8.09 4.6 8.03-4.56V7.66z"/>
  <path  d="M12.79 32.44v3.67h3.09m-10.76-.25c.4-7.65 8.89-9.36 12.86-5.51 4.32 4.17 3 12.2-5.16 13.23m-9.24-10.4 1.54 2.68 2.34-1.94"/>
  <path  d="M32.4 42.98c-5.36-4.31-4.88-10.73-.21-13.3a9.41 9.41 0 0 1 3.85-1.09m-7.5 14.6h4.05v-4.07m6.97-10.22c6.58 5.3 4.35 13.78-3.65 14.39m7.5-14.6h-4.04v4.07"/>
  <path  d="M60.27 32.56h3.35v3.36m-4.35.92 4.07-4.07m-10.62-1.04v11.45h11.8M56.4 28.6h10.26c.39 0 .7.32.7.71v10.14a.7.7 0 0 1-.7.71H56.39a.7.7 0 0 1-.7-.7V29.31c0-.4.31-.7.7-.7z"/>
  <path  d="M79.86 43.5H76.5v-3.36m4.35-.91-4.07 4.07m3.08-14.8H76.5v3.36m4.35.91-4.07-4.07m11.36 14.8h3.36v-3.36m-4.35-.91 4.07 4.07m-3.08-14.8h3.36v3.36m-4.35.91 4.07-4.07"/>
  <path  d="M5.85 62.87H9.2v3.36m-4.36.92 4.07-4.08m-3.07-6.03H9.2v-3.36m-4.36-.91 4.07 4.07m9.23 6.03H14.8v3.36m4.36.92-4.07-4.08m3.07-5.94H14.8v-3.36m4.36-.92-4.07 4.07"/>
  <g >
    <path stroke-dasharray="0.12000001, 2.20000004" d="M43.53 60.52v6.97H28.58v-6.97z"/>
    <path d="M39.72 52.79a3.66 3.66 0 0 1 3.88 3.44m-3.48-4.82-1.5 1.34 1.34 1.49m-11.38-1.7h6.98v14.95h-6.98z"/>
  </g>
  <g >
    <path stroke-dasharray="0.12000001, 2.20000004" d="M59.48 52.54H52.5V67.5h6.98z"/>
    <path d="M67.2 56.36a3.66 3.66 0 0 0-3.43-3.88m4.81 3.48-1.33 1.5-1.5-1.34m1.7 11.38v-6.97H52.5v6.97z"/>
  </g>
</svg>