<?xml version="1.0" encoding="UTF-8" standalone="no"?>
<svg
   width="96"
   height="96"
   viewBox="0 0 96 96"
   version="1.1"
   id="svg1"
   sodipodi:docname="iconSet_9_inkscape.svg"
   inkscape:version="1.3.2 (091e20ef0f, 2023-11-25, custom)"
   xml:space="preserve"
   xmlns:inkscape="http://www.inkscape.org/namespaces/inkscape"
   xmlns:sodipodi="http://sodipodi.sourceforge.net/DTD/sodipodi-0.dtd"
   xmlns="http://www.w3.org/2000/svg"
   xmlns:svg="http://www.w3.org/2000/svg"><defs
     id="defs1"><inkscape:path-effect
       effect="powermask"
       id="path-effect48"
       is_visible="true"
       lpeversion="1"
       uri="#mask-powermask-path-effect48"
       invert="false"
       hide_mask="false"
       background="true"
       background_color="#ffffffff" /><filter
       id="mask-powermask-path-effect36_inverse"
       inkscape:label="filtermask-powermask-path-effect36"
       style="color-interpolation-filters:sRGB"
       height="100"
       width="100"
       x="-50"
       y="-50"><feColorMatrix
         id="mask-powermask-path-effect36_primitive1"
         values="1"
         type="saturate"
         result="fbSourceGraphic" /><feColorMatrix
         id="mask-powermask-path-effect36_primitive2"
         values="-1 0 0 0 1 0 -1 0 0 1 0 0 -1 0 1 0 0 0 1 0 "
         in="fbSourceGraphic" /></filter><filter
       id="mask-powermask-path-effect40_inverse"
       inkscape:label="filtermask-powermask-path-effect40"
       style="color-interpolation-filters:sRGB"
       height="100"
       width="100"
       x="-50"
       y="-50"><feColorMatrix
         id="mask-powermask-path-effect40_primitive1"
         values="1"
         type="saturate"
         result="fbSourceGraphic" /><feColorMatrix
         id="mask-powermask-path-effect40_primitive2"
         values="-1 0 0 0 1 0 -1 0 0 1 0 0 -1 0 1 0 0 0 1 0 "
         in="fbSourceGraphic" /></filter><filter
       id="mask-powermask-path-effect44_inverse"
       inkscape:label="filtermask-powermask-path-effect44"
       style="color-interpolation-filters:sRGB"
       height="100"
       width="100"
       x="-50"
       y="-50"><feColorMatrix
         id="mask-powermask-path-effect44_primitive1"
         values="1"
         type="saturate"
         result="fbSourceGraphic" /><feColorMatrix
         id="mask-powermask-path-effect44_primitive2"
         values="-1 0 0 0 1 0 -1 0 0 1 0 0 -1 0 1 0 0 0 1 0 "
         in="fbSourceGraphic" /></filter><filter
       id="mask-powermask-path-effect48_inverse"
       inkscape:label="filtermask-powermask-path-effect48"
       style="color-interpolation-filters:sRGB"
       height="100"
       width="100"
       x="-50"
       y="-50"><feColorMatrix
         id="mask-powermask-path-effect48_primitive1"
         values="1"
         type="saturate"
         result="fbSourceGraphic" /><feColorMatrix
         id="mask-powermask-path-effect48_primitive2"
         values="-1 0 0 0 1 0 -1 0 0 1 0 0 -1 0 1 0 0 0 1 0 "
         in="fbSourceGraphic" /></filter></defs><sodipodi:namedview
     id="namedview1"
     pagecolor="#ffffff"
     bordercolor="#000000"
     borderopacity="0.25"
     inkscape:showpageshadow="2"
     inkscape:pageopacity="0.0"
     inkscape:pagecheckerboard="0"
     inkscape:deskcolor="#d1d1d1"
     showguides="true"
     inkscape:zoom="11.313709"
     inkscape:cx="41.896075"
     inkscape:cy="43.2219"
     inkscape:window-width="2560"
     inkscape:window-height="1368"
     inkscape:window-x="1920"
     inkscape:window-y="0"
     inkscape:window-maximized="1"
     inkscape:current-layer="svg1"
     showgrid="true"><sodipodi:guide
       position="24,24.6875"
       orientation="1,0"
       id="guide1"
       inkscape:locked="false" /><sodipodi:guide
       position="48,6.762886"
       orientation="1,0"
       id="guide2"
       inkscape:locked="false" /><sodipodi:guide
       position="72,24"
       orientation="1,0"
       id="guide3"
       inkscape:locked="false" /><sodipodi:guide
       position="1.378906,22"
       orientation="0,1"
       id="guide4"
       inkscape:locked="false"
       inkscape:label=""
       inkscape:color="rgb(0,134,229)" /><sodipodi:guide
       position="25.433747,2"
       orientation="0,1"
       id="guide5"
       inkscape:locked="false"
       inkscape:label=""
       inkscape:color="rgb(0,134,229)" /><inkscape:grid
       id="grid1"
       units="px"
       originx="0"
       originy="0"
       spacingx="2"
       spacingy="2"
       empcolor="#e57900"
       empopacity="0.31764706"
       color="#e500a9"
       opacity="0.054902"
       empspacing="6"
       dotted="false"
       gridanglex="30"
       gridanglez="30"
       visible="true" /><sodipodi:guide
       position="2,22.9375"
       orientation="1,0"
       id="guide6"
       inkscape:locked="false" /><sodipodi:guide
       position="22,48"
       orientation="1,0"
       id="guide7"
       inkscape:locked="false" /><sodipodi:guide
       position="26,20.59375"
       orientation="1,0"
       id="guide8"
       inkscape:locked="false" /><sodipodi:guide
       position="46,23.425476"
       orientation="1,0"
       id="guide9"
       inkscape:locked="false" /><sodipodi:guide
       position="50,10"
       orientation="1,0"
       id="guide10"
       inkscape:locked="false" /><sodipodi:guide
       position="70,73.063225"
       orientation="1,0"
       id="guide11"
       inkscape:locked="false" /><sodipodi:guide
       position="74,22"
       orientation="1,0"
       id="guide12"
       inkscape:locked="false" /><sodipodi:guide
       position="94,20.75"
       orientation="1,0"
       id="guide13"
       inkscape:locked="false" /><sodipodi:guide
       position="2,22"
       orientation="0,-1"
       id="guide14"
       inkscape:locked="false" /><sodipodi:guide
       position="4,2"
       orientation="0,-1"
       id="guide15"
       inkscape:locked="false" /><sodipodi:guide
       position="14,46"
       orientation="0,-1"
       id="guide16"
       inkscape:locked="false" /><sodipodi:guide
       position="24,26"
       orientation="0,-1"
       id="guide17"
       inkscape:locked="false" /><sodipodi:guide
       position="-44,94"
       orientation="0,-1"
       id="guide67"
       inkscape:locked="false" /><sodipodi:guide
       position="8,74"
       orientation="0,-1"
       id="guide68"
       inkscape:locked="false" /><sodipodi:guide
       position="-4,70"
       orientation="0,-1"
       id="guide69"
       inkscape:locked="false" /><sodipodi:guide
       position="116,50"
       orientation="0,-1"
       id="guide70"
       inkscape:locked="false" /></sodipodi:namedview><path
     d="m 40.754796,17.156059 2.626488,-2.626489 2.626488,-2.62649 -5.252976,-5.252976 m -9.503777,0 -5.252973,5.252976 5.252973,5.252979 m 6.9533,-14.7083343 -4.202382,18.9107133"
     stroke="#000000"
     stroke-width="2"
     stroke-linecap="round"
     stroke-linejoin="round"
     id="path1"
     style="display:inline;fill:none;stroke:#000022;stroke-width:1;stroke-dasharray:none;stroke-opacity:1"
     sodipodi:nodetypes="ccccccccc" /><path
     id="path18-2-9"
     mask="none"
     style="display:inline;fill:none;fill-opacity:1;stroke:#000033;stroke-width:1;stroke-linecap:round;stroke-linejoin:round;stroke-dasharray:none;stroke-opacity:1"
     d="m 56.545638,5.0781797 0.167294,5.3671253 c 0.05996,1.923507 -2.20163,4.023787 -3.286977,5.904421 -2.007821,3.479047 -2.095374,5.923077 6.469283,5.923077 M 63.244839,5.0781808 63.077545,10.445305 c -0.05996,1.923507 2.20163,4.023787 3.286977,5.904421 2.007819,3.479047 2.095374,5.923077 -6.469284,5.923077 M 58.349215,11.344119 h 1.478642 M 58.314816,9.8654384 h 2.217941 M 58.314772,8.3867959 h 1.478642 M 58.211486,6.9081551 h 2.217941 M 54,15.73062 c 6.842692,2.969624 4.320503,-2.558263 13.134175,2.574046 M 64.944597,3.4537458 a 5.2119989,1.4560403 0 0 1 -5.149999,1.4559369 5.2119989,1.4560403 0 0 1 -5.272524,-1.4212984 5.2119989,1.4560403 0 0 1 5.024561,-1.489752 5.2119989,1.4560403 0 0 1 5.392063,1.3858564" /><path
     id="path4"
     style="display:inline;fill:none;fill-opacity:0.347626;stroke:#000044;stroke-width:1;stroke-linecap:round;stroke-linejoin:round;stroke-dasharray:none;stroke-opacity:1"
     d="m 83.977263,11.963166 v 9.80003 m -8.683172,-14.7676348 4.341586,2.483802 4.341586,2.4838028 8.505079,-4.9104128 m -8.505079,-4.843155 -8.683172,4.785963 -0.06759,9.7915848 8.750759,4.97605 8.682312,-4.929584 0.0042,-9.6775332 z"
     sodipodi:nodetypes="ccccccccccccc" /><style
     type="text/css"
     id="style1">
	.st0{fill:#333333;}
</style><path
     id="path19"
     style="display:inline;fill:none;stroke:#000055;stroke-width:1;stroke-linecap:round;stroke-linejoin:round;stroke-dasharray:none;stroke-opacity:1"
     d="m 12.886156,32.008697 v 4.318614 h 3.636047 M 3.8587725,36.036163 C 4.3321208,27.034522 14.324304,25.023295 19.002147,29.545718 c 5.081309,4.912485 3.538115,14.376045 -6.077958,15.583488 M 2.0479761,32.880272 3.8587725,36.036163 6.6162668,33.757079" /><path
     id="path21-3"
     style="display:inline;fill:none;stroke:#000066;stroke-width:1;stroke-linecap:round;stroke-linejoin:round;stroke-dasharray:none;stroke-opacity:1"
     d="m 31.501069,44.951578 c -6.780295,-5.458275 -6.176374,-13.572652 -0.270274,-16.826774 1.35669,-0.747505 2.993159,-1.238551 4.884169,-1.382031 m -9.490341,18.476433 h 5.11805 v -5.15012 m 8.818382,-12.933737 c 8.337795,6.712095 5.509278,17.440711 -4.613896,18.208805 M 45.4375,26.867721 h -5.11805 v 5.15012"
     sodipodi:nodetypes="csccccccccc" /><style
     type="text/css"
     id="style1-6">
	.st0{fill:#000000;}
</style><path
     id="path25"
     style="display:inline;fill:none;stroke:#000077;stroke-width:1;stroke-linecap:round;stroke-linejoin:round;stroke-dasharray:none;stroke-opacity:1"
     d="m 60.290379,31.751284 h 4.296668 v 4.295651 m -5.569574,1.173947 5.209671,-5.209667 M 50.639792,30.684913 V 45.331362 H 65.738643 M 55.336982,26.695156 h 13.118525 c 0.501205,0 0.904702,0.403499 0.904702,0.904702 v 12.978228 c 0,0.501204 -0.403497,0.904702 -0.904702,0.904702 H 55.336982 c -0.501207,0 -0.904704,-0.403498 -0.904704,-0.904702 v -10.749108 -2.22912 c 0,-0.501203 0.403497,-0.904702 0.904704,-0.904702 z"
     sodipodi:nodetypes="ccccccccssssssscss" /><path
     id="path25-8-2-9"
     style="display:inline;fill:none;stroke:#000088;stroke-width:1;stroke-linecap:round;stroke-linejoin:round;stroke-dasharray:none;stroke-opacity:1"
     d="m 78.822342,45.374999 h -4.197341 v -4.196347 m 5.44082,-1.14681 -5.089234,5.089234 M 78.822342,26.625 h -4.197341 v 4.196348 m 5.44082,1.14681 -5.089234,-5.089235 M 89.177658,45.374999 H 93.375 v -4.196347 m -5.440822,-1.14681 5.089236,5.089234 M 89.177658,26.625 H 93.375 v 4.196348 m -5.440822,1.14681 2.544618,-2.544618 2.544618,-2.544617"
     sodipodi:nodetypes="ccccccccccccccccccccc" /><path
     id="path25-8-2-9-7"
     style="display:inline;fill:none;stroke:#000099;stroke-width:1;stroke-linecap:round;stroke-linejoin:round;stroke-dasharray:none;stroke-opacity:1"
     d="m 4.0450448,63.791771 h 4.3661801 v 4.365147 m -5.6596793,1.19294 5.2939517,-5.29395 m -4.0004525,-7.84768 h 4.3661801 v -4.365147 m -5.6596793,-1.19294 5.2939517,5.29395 m 11.9973377,7.84768 h -4.366181 v 4.365147 m 5.659679,1.19294 -5.293951,-5.29395 m 4.000453,-7.732751 h -4.366181 v -4.365146 m 5.659679,-1.192941 -5.293951,5.293951" /><path
     id="rect20-5"
     style="display:inline;fill:none;stroke:#0000aa;stroke-width:1;stroke-linecap:round;stroke-linejoin:round;stroke-dasharray:0.12, 2.20001;stroke-dashoffset:0;stroke-opacity:1"
     d="m 44.293335,61.244606 v 8.167061 H 26.782549 v -8.167061 z" /><path
     id="path28"
     style="display:inline;fill:none;stroke:#0000aa;stroke-width:1;stroke-linecap:round;stroke-linejoin:round;stroke-dasharray:none;stroke-opacity:1"
     d="m 39.820591,52.196517 a 4.2808275,4.2808275 0 0 1 3.11234,1.067143 4.2808275,4.2808275 0 0 1 1.435845,2.960373 m -4.079777,-5.63862 -1.743797,1.562843 1.562838,1.743801 M 26.782553,51.903802 h 8.167061 v 17.510786 h -8.167061 z" /><path
     id="rect20-5-9"
     style="display:inline;fill:none;stroke:#0000bb;stroke-width:1;stroke-linecap:round;stroke-linejoin:round;stroke-dasharray:0.120001, 2.20001;stroke-dashoffset:0;stroke-opacity:0.996234"
     d="m 59.139631,50.769142 h -8.639512 v 18.523757 h 8.639512 z" /><path
     id="path28-4"
     style="display:inline;fill:none;stroke:#0000bb;stroke-width:1;stroke-linecap:round;stroke-linejoin:round;stroke-dasharray:none;stroke-opacity:0.996234"
     d="m 68.445981,55.677395 a 4.5284666,4.5284666 0 0 0 -1.128877,-3.292382 4.5284666,4.5284666 0 0 0 -3.131622,-1.518907 m 5.964797,4.315791 -1.653252,1.844672 -1.844678,-1.653246 m 2.103269,14.096349 V 60.830159 H 50.23186 v 8.639513 z" /><path
     id="path15-6"
     style="display:inline;fill:none;fill-opacity:1;stroke:#000011;stroke-width:1;stroke-linecap:round;stroke-linejoin:round;stroke-dasharray:none;stroke-opacity:1"
     d="m 12.08088,20.962602 c 4.582732,0 6.007867,-3.561275 6.007867,-8.18725 0,-5.2044688 -1.908412,-8.3224982 -6.110754,-8.3267029 M 21.026902,21.81037 17.231213,18.018941 m 5.421505,-3.022829 -2.300524,-0.401967 -2.300524,-0.401969 m 4.316,-5.6731627 -4.427536,1.1863547 M 14.212643,2.1247303 V 4.6252697 M 12.08088,20.962602 c -4.5827323,0 -6.2103409,-3.561275 -6.2103409,-8.187249 0,-5.2044689 1.908411,-8.3224991 6.1107529,-8.326703 M 6.0191528,9.705369 H 17.94343 M 12.08088,20.962602 12.022003,9.705369 M 1.5916105,8.5190143 6.0191483,9.705369 M 9.746639,2.1247309 V 4.6252698 M 2.9323797,21.81037 6.728068,18.018941 M 1.306567,14.996112 5.9076143,14.192175"
     sodipodi:nodetypes="cscccccccccccsccccccccccccc" /></svg>
