<?xml version="1.0" encoding="UTF-8" standalone="no"?>
<svg
   width="96"
   height="96"
   viewBox="0 0 96 96"
   version="1.1"
   id="svg1"
   sodipodi:docname="iconSet_8_inkscape.svg"
   inkscape:version="1.3.2 (091e20ef0f, 2023-11-25, custom)"
   xml:space="preserve"
   xmlns:inkscape="http://www.inkscape.org/namespaces/inkscape"
   xmlns:sodipodi="http://sodipodi.sourceforge.net/DTD/sodipodi-0.dtd"
   xmlns="http://www.w3.org/2000/svg"
   xmlns:svg="http://www.w3.org/2000/svg"><defs
     id="defs1"><inkscape:path-effect
       effect="powermask"
       id="path-effect48"
       is_visible="true"
       lpeversion="1"
       uri="#mask-powermask-path-effect48"
       invert="false"
       hide_mask="false"
       background="true"
       background_color="#ffffffff" /><filter
       id="mask-powermask-path-effect36_inverse"
       inkscape:label="filtermask-powermask-path-effect36"
       style="color-interpolation-filters:sRGB"
       height="100"
       width="100"
       x="-50"
       y="-50"><feColorMatrix
         id="mask-powermask-path-effect36_primitive1"
         values="1"
         type="saturate"
         result="fbSourceGraphic" /><feColorMatrix
         id="mask-powermask-path-effect36_primitive2"
         values="-1 0 0 0 1 0 -1 0 0 1 0 0 -1 0 1 0 0 0 1 0 "
         in="fbSourceGraphic" /></filter><filter
       id="mask-powermask-path-effect40_inverse"
       inkscape:label="filtermask-powermask-path-effect40"
       style="color-interpolation-filters:sRGB"
       height="100"
       width="100"
       x="-50"
       y="-50"><feColorMatrix
         id="mask-powermask-path-effect40_primitive1"
         values="1"
         type="saturate"
         result="fbSourceGraphic" /><feColorMatrix
         id="mask-powermask-path-effect40_primitive2"
         values="-1 0 0 0 1 0 -1 0 0 1 0 0 -1 0 1 0 0 0 1 0 "
         in="fbSourceGraphic" /></filter><filter
       id="mask-powermask-path-effect44_inverse"
       inkscape:label="filtermask-powermask-path-effect44"
       style="color-interpolation-filters:sRGB"
       height="100"
       width="100"
       x="-50"
       y="-50"><feColorMatrix
         id="mask-powermask-path-effect44_primitive1"
         values="1"
         type="saturate"
         result="fbSourceGraphic" /><feColorMatrix
         id="mask-powermask-path-effect44_primitive2"
         values="-1 0 0 0 1 0 -1 0 0 1 0 0 -1 0 1 0 0 0 1 0 "
         in="fbSourceGraphic" /></filter><filter
       id="mask-powermask-path-effect48_inverse"
       inkscape:label="filtermask-powermask-path-effect48"
       style="color-interpolation-filters:sRGB"
       height="100"
       width="100"
       x="-50"
       y="-50"><feColorMatrix
         id="mask-powermask-path-effect48_primitive1"
         values="1"
         type="saturate"
         result="fbSourceGraphic" /><feColorMatrix
         id="mask-powermask-path-effect48_primitive2"
         values="-1 0 0 0 1 0 -1 0 0 1 0 0 -1 0 1 0 0 0 1 0 "
         in="fbSourceGraphic" /></filter></defs><sodipodi:namedview
     id="namedview1"
     pagecolor="#ffffff"
     bordercolor="#000000"
     borderopacity="0.25"
     inkscape:showpageshadow="2"
     inkscape:pageopacity="0.0"
     inkscape:pagecheckerboard="0"
     inkscape:deskcolor="#d1d1d1"
     showguides="true"
     inkscape:zoom="5.6568545"
     inkscape:cx="-2.7400386"
     inkscape:cy="63.286054"
     inkscape:window-width="2560"
     inkscape:window-height="1368"
     inkscape:window-x="1920"
     inkscape:window-y="0"
     inkscape:window-maximized="1"
     inkscape:current-layer="svg1"
     showgrid="true"><sodipodi:guide
       position="24,24.6875"
       orientation="1,0"
       id="guide1"
       inkscape:locked="false" /><sodipodi:guide
       position="48,6.762886"
       orientation="1,0"
       id="guide2"
       inkscape:locked="false" /><sodipodi:guide
       position="72,24"
       orientation="1,0"
       id="guide3"
       inkscape:locked="false" /><sodipodi:guide
       position="1.378906,22"
       orientation="0,1"
       id="guide4"
       inkscape:locked="false"
       inkscape:label=""
       inkscape:color="rgb(0,134,229)" /><sodipodi:guide
       position="25.433747,2"
       orientation="0,1"
       id="guide5"
       inkscape:locked="false"
       inkscape:label=""
       inkscape:color="rgb(0,134,229)" /><inkscape:grid
       id="grid1"
       units="px"
       originx="0"
       originy="0"
       spacingx="2"
       spacingy="2"
       empcolor="#e57900"
       empopacity="0.31764706"
       color="#e500a9"
       opacity="0.054902"
       empspacing="6"
       dotted="false"
       gridanglex="30"
       gridanglez="30"
       visible="true" /><sodipodi:guide
       position="2,22.9375"
       orientation="1,0"
       id="guide6"
       inkscape:locked="false" /><sodipodi:guide
       position="22,48"
       orientation="1,0"
       id="guide7"
       inkscape:locked="false" /><sodipodi:guide
       position="26,20.59375"
       orientation="1,0"
       id="guide8"
       inkscape:locked="false" /><sodipodi:guide
       position="46,23.425476"
       orientation="1,0"
       id="guide9"
       inkscape:locked="false" /><sodipodi:guide
       position="50,10"
       orientation="1,0"
       id="guide10"
       inkscape:locked="false" /><sodipodi:guide
       position="70,73.063225"
       orientation="1,0"
       id="guide11"
       inkscape:locked="false" /><sodipodi:guide
       position="74,22"
       orientation="1,0"
       id="guide12"
       inkscape:locked="false" /><sodipodi:guide
       position="94,20.75"
       orientation="1,0"
       id="guide13"
       inkscape:locked="false" /><sodipodi:guide
       position="2,22"
       orientation="0,-1"
       id="guide14"
       inkscape:locked="false" /><sodipodi:guide
       position="4,2"
       orientation="0,-1"
       id="guide15"
       inkscape:locked="false" /><sodipodi:guide
       position="14,46"
       orientation="0,-1"
       id="guide16"
       inkscape:locked="false" /><sodipodi:guide
       position="24,26"
       orientation="0,-1"
       id="guide17"
       inkscape:locked="false" /><sodipodi:guide
       position="-44,94"
       orientation="0,-1"
       id="guide67"
       inkscape:locked="false" /><sodipodi:guide
       position="8,74"
       orientation="0,-1"
       id="guide68"
       inkscape:locked="false" /><sodipodi:guide
       position="-4,70"
       orientation="0,-1"
       id="guide69"
       inkscape:locked="false" /><sodipodi:guide
       position="116,50"
       orientation="0,-1"
       id="guide70"
       inkscape:locked="false" /></sodipodi:namedview><path
     d="M 40.421208,16.913984 42.8782,14.456991 45.335192,11.999998 40.421208,7.0860164 m -8.890465,0 -4.913981,4.9139816 4.913981,4.913986 M 38.035322,3.1548311 34.104134,20.845169"
     stroke="#000000"
     stroke-width="2"
     stroke-linecap="round"
     stroke-linejoin="round"
     id="path1"
     style="fill:none;stroke-width:1;stroke-dasharray:none;stroke:#000022;stroke-opacity:1"
     sodipodi:nodetypes="ccccccccc" /><path
     id="path18-2-9"
     mask="none"
     style="fill:none;fill-opacity:1;stroke:#000033;stroke-width:1;stroke-linecap:round;stroke-linejoin:round;stroke-dasharray:none;stroke-opacity:1"
     d="m 56.964735,5.669032 0.151784,4.86952 c 0.0544,1.745173 -1.997509,3.650728 -2.98223,5.357002 -1.821668,3.156493 -1.901104,5.373928 5.869494,5.373928 m 3.039048,-15.600449 -0.151784,4.869519 c -0.0544,1.745173 1.997509,3.650728 2.98223,5.357002 1.821668,3.156493 1.901104,5.373928 -5.869494,5.373928 m -1.402686,-9.915448 h 1.341552 m -1.372762,-1.341587 h 2.012308 M 58.569847,8.670895 h 1.341552 M 58.476137,7.329344 h 2.012308 m -5.833332,8.004503 c 6.208282,2.6943 3.919934,-2.321077 11.91646,2.335398 M 64.584998,4.195205 A 4.7287765,1.3210458 0 0 1 59.912473,5.516157 4.7287765,1.3210458 0 0 1 55.128783,4.226632 4.7287765,1.3210458 0 0 1 59.6875,2.875 4.7287765,1.3210458 0 0 1 64.579646,4.132369" /><path
     id="path4"
     style="fill:none;fill-opacity:0.347626;stroke:#000044;stroke-width:1;stroke-linecap:round;stroke-linejoin:round;stroke-dasharray:none;stroke-opacity:1"
     d="m 84.1086,12.107422 v 9.0625 M 76.078906,7.5136719 80.093753,9.8105469 84.1086,12.107422 91.973604,7.5665598 M 84.1086,3.0878907 l -8.029694,4.4257812 -0.0625,9.0546871 8.092195,4.601563 8.028899,-4.558594 0.0039,-8.9492187 z"
     sodipodi:nodetypes="ccccccccccccc" /><style
     type="text/css"
     id="style1">
	.st0{fill:#333333;}
</style><path
     id="path19"
     style="fill:none;stroke:#000055;stroke-width:1;stroke-linecap:round;stroke-linejoin:round;stroke-dasharray:none;stroke-opacity:1"
     d="M 12.787312,32.438095 V 36.1066 h 3.088689 M 5.1188794,35.85928 c 0.4020921,-7.646565 8.8900866,-9.355029 12.8637436,-5.513396 4.316387,4.172977 3.0055,12.211925 -5.163003,13.237604 M 3.580674,33.178466 5.1188794,35.85928 7.4612701,33.923281" /><path
     id="path21-3"
     style="fill:none;stroke:#000066;stroke-linecap:round;stroke-linejoin:round;stroke-width:1;stroke-dasharray:none;stroke-opacity:1"
     d="m 32.398591,42.977841 c -5.357092,-4.312568 -4.879935,-10.723714 -0.213542,-13.294788 1.071917,-0.590601 2.364886,-0.978575 3.858968,-1.091938 m -7.498292,14.598178 h 4.043757 v -4.069095 m 6.967379,-10.21891 c 6.587669,5.303208 4.352866,13.779857 -3.645426,14.386726 M 43.409727,28.689836 H 39.36597 v 4.069095"
     sodipodi:nodetypes="csccccccccc" /><style
     type="text/css"
     id="style1-6">
	.st0{fill:#000000;}
</style><path
     id="path25"
     style="fill:none;stroke:#000077;stroke-linecap:round;stroke-linejoin:round;stroke-width:1;stroke-dasharray:none;stroke-opacity:1"
     d="m 60.265642,32.564792 h 3.357873 v 3.357078 m -4.352657,0.917448 4.071389,-4.071388 M 52.723649,31.731417 v 11.446291 h 11.799845 m -8.128963,-14.56431 h 10.252208 c 0.391695,0 0.707031,0.315336 0.707031,0.707031 v 10.142563 c 0,0.391695 -0.315336,0.707031 -0.707031,0.707031 H 56.394531 c -0.391695,0 -0.707031,-0.315336 -0.707031,-0.707031 v -8.400493 -1.74207 c 0,-0.391695 0.315336,-0.707031 0.707031,-0.707031 z"
     sodipodi:nodetypes="ccccccccssssssscss" /><path
     id="path25-8-2-9"
     style="fill:none;stroke:#000088;stroke-linecap:round;stroke-linejoin:round;stroke-width:1;stroke-dasharray:none;stroke-opacity:1"
     d="M 79.857873,43.5 H 76.5 v -3.357078 m 4.352657,-0.917448 -4.071389,4.071388 M 79.857873,28.5 H 76.5 v 3.357078 m 4.352657,0.917448 -4.071389,-4.071388 M 88.142127,43.5 H 91.5 v -3.357078 m -4.352657,-0.917448 4.071389,4.071388 M 88.142127,28.5 H 91.5 v 3.357078 m -4.352657,0.917448 2.035694,-2.035694 2.035695,-2.035694"
     sodipodi:nodetypes="ccccccccccccccccccccc" /><path
     id="path25-8-2-9-7"
     style="fill:none;stroke:#000099;stroke-linecap:round;stroke-linejoin:round;stroke-width:1;stroke-dasharray:none;stroke-opacity:1"
     d="M 5.848336,62.871922 H 9.206209 V 66.229 M 4.853552,67.146448 8.924941,63.07506 M 5.848336,57.03969 h 3.357873 v -3.357078 m -4.352657,-0.917448 4.071389,4.071388 m 9.226723,6.03537 H 14.793791 V 66.229 m 4.352657,0.917448 -4.071389,-4.071388 m 3.076605,-5.946982 H 14.793791 V 53.771 m 4.352657,-0.917448 -4.071389,4.071388" /><path
     id="rect20-5"
     style="fill:none;stroke:#0000aa;stroke-linecap:round;stroke-linejoin:round;stroke-dasharray:0.12000001, 2.20000004;stroke-width:1;stroke-dashoffset:0;stroke-opacity:1"
     d="m 43.534729,60.51569 v 6.975478 H 28.578786 V 60.51569 Z" /><path
     id="path28"
     style="fill:none;stroke:#0000aa;stroke-linecap:round;stroke-linejoin:round;stroke-width:1;stroke-dasharray:none;stroke-opacity:1"
     d="m 39.714564,52.787727 a 3.65625,3.65625 0 0 1 2.658245,0.911446 3.65625,3.65625 0 0 1 1.226354,2.52845 m -3.484533,-4.815939 -1.489375,1.334823 1.334819,1.489379 m -11.381285,-1.698166 6.975478,0 0,14.955943 -6.975478,0 z" /><path
     id="rect20-5-9"
     style="fill:none;stroke:#0000bb;stroke-linecap:round;stroke-linejoin:round;stroke-dasharray:0.12000001, 2.20000004;stroke-width:1;stroke-dashoffset:0;stroke-opacity:0.99623352"
     d="m 59.477974,52.54406 h -6.975478 v 14.955943 h 6.975478 z" /><path
     id="path28-4"
     style="fill:none;stroke:#0000bb;stroke-linecap:round;stroke-linejoin:round;stroke-width:1;stroke-dasharray:none;stroke-opacity:0.99623352"
     d="M 67.205942,56.364219 A 3.65625,3.65625 0 0 0 66.294495,53.705974 3.65625,3.65625 0 0 0 63.766046,52.47962 m 4.815933,3.484538 -1.334824,1.489374 -1.489378,-1.334819 M 67.45594,67.5 l 0,-6.975478 -14.955943,0 0,6.975478 z" /><path
     id="path15-6"
     style="display:inline;fill:none;fill-opacity:1;stroke:#000011;stroke-width:1;stroke-linecap:round;stroke-linejoin:round;stroke-dasharray:none;stroke-opacity:1"
     d="m 12.099506,19.679574 c 4.085565,0 5.356091,-3.174923 5.356091,-7.299039 0,-4.6398511 -1.701374,-7.4196145 -5.447816,-7.423363 M 20.075,20.43537 16.691094,17.055262 m 4.833342,-2.694891 -2.050947,-0.358359 -2.050947,-0.35836 M 21.270312,8.5859541 17.323106,9.643605 M 14,2.8853684 V 5.1146315 M 12.099506,19.679574 c -4.085565,0 -5.536599,-3.174923 -5.536599,-7.299038 0,-4.6398513 1.701373,-7.4196154 5.447815,-7.4233632 M 6.695398,9.643606 H 17.326045 M 12.099506,19.679574 12.047016,9.643606 M 2.748187,8.585955 6.695394,9.643606 M 10.0185,2.8853689 V 5.1146316 M 3.9435,20.43537 7.327405,17.055262 M 2.494067,14.360371 6.59596,13.643651"
     sodipodi:nodetypes="cscccccccccccsccccccccccccc" /></svg>
