<svg xmlns="http://www.w3.org/2000/svg" width="752" height="200">
  <path d="M490.7 186.7c-3-1.2-5-3-6.6-6-3.3-6-3.2-5.4-3.2-54l-.7-45.7c-.3-.7-1.6-2.3-2.7-3.5-2.6-2.7-3.2-4.3-2.2-6 .8-1.7 1.6-2.2 3.1-2.2a2.3 2.3 0 0 0 1.9-1.1c.3-.7.6-8.7.6-22 0-16.7-.2-21.4-.9-24l-.8-3.5 2.2-.9c3-.8 6.8.2 8.9 2.4l1.6 1.6.1 23.3.2 23.2 3.8-.4c13.8-1.3 18.6-1.1 20.5.8.9 1 1.5 1 3.2.7l2.1-.5.2-22.6c.1-19.7 0-22.9-.8-25-.5-1.3-.8-2.6-.6-2.7.7-.7 5-1.3 6.5-1 2.5.6 4.6 1.8 5.3 3.2.6 1 .8 7 1 24.2l.3 22.8h2.8l10.8-.5c7.4-.4 8-.3 9.7.8 1.7 1 1.9 1.4 1.9 4.1 0 3.2-.9 7-1.9 8.2-.4.6-.8.6-2-.2-1-.7-3.7-1-10.6-1.5-5-.3-9.5-.4-10-.2-1.6.6-1 2.7 1.5 6a93.2 93.2 0 0 1 17.6 34c6 22.7 2.9 51.9-6.8 63.1-7 8.1-17 7.4-21.5-1.6-3-6-3-7.1-3-55V80.8l-2.5-2.4-2.5-2.4-.7 2.3c-.7 2.6-.4 2.5-5.3 1.2-1.2-.3-6-.7-10.6-1l-8.4-.3v1.7c0 1.3.8 2.8 2.7 5.3 8 10.1 14 22 17 33 5.3 19.5 3.8 44.7-3.5 58.7a24 24 0 0 1-8.3 9.1 14.4 14.4 0 0 1-9.4.7zm7-11.4c1.5-1.1 3.1-5.4 4.4-12 .8-3.9 1-8 1-18a82 82 0 0 0-4.2-31c-1.9-6-5.6-15-6.3-15-.7 0-.5 70 .2 72.6.6 2.4 2 4.2 3 4.2.4 0 1.2-.4 1.9-.8zm41.8-.5c2.6-2.8 4.2-9.5 5.3-22.3 1.1-13.4-.4-26-4.8-39.4-2.7-8-5.7-14.8-6.2-13.6-.6 1.7-.4 67 .2 70.7.7 3.9 1.9 6 3.3 6 .6 0 1.6-.7 2.2-1.4zM205 129.4c-4.6-1-9.8-3.5-12.5-6a45.5 45.5 0 0 1-5.4-6.5c0-.1-1.5 1.2-3.2 2.9a26.3 26.3 0 0 1-20.2 7.7c-8.5 0-14.7-2.7-20-8.6l-2.5-2.8-1.4 2.2a27 27 0 0 1-9.3 8.2c-2 .9-3.4 1-7 .9-3.8-.2-4.7-.4-6.8-2-1.6-1-3-2.7-4-4.8l-1.6-3.3-2.7 3.5c-3.7 5-7.5 7-12.8 7-4.8-.1-7.6-1.4-11-5.1l-2.2-2.7-2.5 2.4a16 16 0 0 1-12 5c-4.7 0-7.2-.8-10.2-3.4-1.4-1.2-2.3-1.6-2.8-1.3-5.1 3.9-7.7 4.8-13 4.8-10 0-16.3-5.3-18.7-15.6-1.4-6-.9-17.7 1.1-23.7s5.2-11.1 9.2-15c5-5 9.7-7.6 17.6-9.6l2.4-.6V44.6a95 95 0 0 0-.8-20.2c-1.2-2.8-.5-3.4 3.8-3.5 4.2 0 6 .8 7.5 3.3 1 1.7 1 3.7 1.4 46l.7 45c.8 1.5 3.6 2.8 5.4 2.4 2.2-.5 4.8-3.4 6.5-7 1-2.4 1.4-4.7 1.7-9.6.6-9.5 3.1-23.3 5.8-31.3 1-3.3 2.8-4.4 7.2-4.4 2.7 0 3.3.2 4 1.4.8 1.2.8 1.6-.2 4.6a103 103 0 0 0-5.1 31c0 8.7.5 11.2 3.1 13.8 1.8 1.7 2.2 1.9 4.3 1.6 4.6-.6 8.7-6.5 11.2-16 1.1-4.3 1.2-6 1-19-.1-11.6-.3-14.6-1-15.4-.7-.9-.7-1 .3-1.8 1.7-1.3 6.3-1.2 8.9.2 3.5 1.8 3.5 1.5 3.8 27l.3 23 1.3 1.1c1.6 1.3 2.5 1.3 4.6.2 2.2-1 4.2-3.8 5.6-7.5 1-2.5 1.2-4.2 1.2-10.7a42 42 0 0 1 4.6-21.5 29.3 29.3 0 0 1 11.6-12.6c2.3-1.1 3.6-1.4 7.3-1.4 4.1 0 4.9.2 7.4 1.7 7.2 4.5 8.4 15.6 3 26.9-2.7 5.4-9 11.6-14.8 14.1a14.3 14.3 0 0 0-4.4 2.6c0 1.2 3.4 5.3 5.5 6.7 3.2 2 8.4 3 12.2 2 7.5-1.6 12-6.8 14.9-17 .5-2 1.5-4.3 2.2-5s2.1-2.8 3.2-4.6a31 31 0 0 1 8.4-8.4c1.2 0 .3-1.4-3-4.6-6-5.6-8.9-12.4-8.9-21.5a46.4 46.4 0 0 1 25.2-39.5 31.5 31.5 0 0 1 17.2-3.9c5 .2 6 .5 9.8 2.4 7 3.5 10.5 9.2 10.5 17.6 0 12.7-7.6 24.8-19.2 30.1a16 16 0 0 1-8.3 1.5c-5.2 0-5.2 0-7-1.8-1.8-1.7-2-2.1-2-5.5 0-4.3.8-5.3 3-4.3 4.1 1.9 11.2-.1 15.3-4.4 4-4.2 7-12.4 6.2-17.2-1-5-6.3-7.8-13-6.6a31.4 31.4 0 0 0-22.3 18L198 48v6.7c0 6.3.1 7 1.6 10 3 6.3 9.1 11.2 13.8 11.2 2.7 0 3.7 1.4 3.4 4.5-.3 3.8-2 6.8-3.7 7.2-9.8 2.1-14.5 6.2-16 13.6-1 4.8.3 8.9 3.7 12.3 8.2 8.2 26 4.3 33.5-7.4 1-1.6 2.4-3 3-3.3 1.5-.5 4.4 1.1 5.7 3.3 1.8 3 1.4 5.4-1.4 9.2a33 33 0 0 1-13.1 10.7 35 35 0 0 1-23.4 3.3zM49.4 116c4.1-2.9 4-2.6 4-23.5V73.8H52c-2.5 0-8.2 3.1-10.8 5.9-4.6 5-7 12-7 21.2 0 3 .3 6.5.7 8 2.2 7.8 8.8 11 14.6 7zM152 97.5c4.5-3 7.8-8.4 9-14.8 1.3-8-1.7-11.9-6.3-8-2.4 2-3.9 5-5.1 10.9-1.1 5-1.5 13.6-.7 13.6.3 0 1.7-.7 3-1.7zm279.2 32a26 26 0 0 1-15.9-9.7l-2.1-3c-.1-.2-1 .6-1.9 1.8-2.4 2.9-8 6.4-12.2 7.8a35 35 0 0 1-18 0 28 28 0 0 1-10.7-6.8l-2.2-2.2-3.3 3.6c-4.7 5-8.2 6.7-14 6.4-5.3-.2-8.2-1.9-10.6-6l-1.6-2.7-.3-21.6-.3-21.7-1.6-1.4c-1.4-1.2-1.7-1.3-3.1-.5a31 31 0 0 0-9.6 11.7c-3.7 7.6-4 9.7-4 25.3 0 16.6-.2 17-5.3 17-2.3 0-3-.3-4.4-1.7-1-.9-1.7-2-1.7-2.5 0-1.2-.4-1.1-2.4.6-3 2.5-6 3.6-10.1 3.6-2 0-4.5-.3-5.4-.6-2.1-.8-5-3.7-6.6-6.5-1.1-2.1-1.2-3-1.5-23.4-.2-11.7-.5-21.7-.8-22.3s-1-1.2-1.6-1.5c-3.9-1.4-11.3 8-15.3 19.5-.3 1-.7 8.8-.9 17.5-.4 17.9-.2 17.3-5.3 17.3-2.3 0-3-.3-4.4-1.7l-1.6-1.6V97.7c0-15.9-.3-27.3-.6-28.4-.8-2.7-.3-3.9 2-4.5 2.6-.7 6 .2 8 2.3 1.4 1.5 1.6 2.2 1.9 6l.3 4.4 2.1-3.6c4.4-7 9.6-10.9 15-10.9 5.6 0 9.5 2.7 11.4 7.8 1 2.8 1.1 4.4 1.1 20.7 0 9.7.2 19 .4 20.6.4 3.2 2.2 5.8 4 5.8 2 0 5-2.5 6.5-5.4 3.2-5.8 3.3-7.2 3.3-27.3V66c0-.4.8-1 1.7-1.3 2.5-.9 6.2.2 8.2 2.3 1.4 1.4 1.6 2.2 2 6l.2 4.3 2.1-3.4c3.2-5 5.8-7.9 9-9.5 5.4-2.6 12-1.6 15.4 2.4 3 3.5 3.2 6 3.2 26 0 10.2.3 19.5.6 20.7.5 2.4 2.2 4.3 4 4.3 1.9 0 4.7-2.6 6.5-6l1.8-3.5-.3-9c-.2-8.5-.2-9.2 1.2-14 2-6.8 5-12.2 8.8-16 4-4.1 7.7-6 12.3-6.3 13.3-.8 18.8 13 11.4 28.7-2.7 5.5-9 11.7-14.8 14.2-2.4 1.1-4.4 2.3-4.4 2.6s.8 1.7 1.7 3c4.5 6.2 12.8 8 20.2 4.3 5-2.4 8.5-7.7 10.7-15.5.5-2 1.5-4.4 2.2-5.1s1.7-2.3 2.2-3.2a37 37 0 0 1 10-10.5c0-.3-1.7-2-3.7-4-6.6-6-9.1-13.1-8.6-23.6a45.5 45.5 0 0 1 32-40.2c3.3-1 5-1.2 9.8-1 5 .2 6.3.5 9.5 2A18.2 18.2 0 0 1 474 32c.4 9-3 17.1-10 24.3-5.6 5.6-10.1 7.9-16.5 8.3-5 .3-7.6-.6-9.2-3.2-1.2-2-1.3-6.8-.2-8.3.7-.9 1-1 2.3-.4 4.3 2 11 0 15.4-4.3 4-4.2 7-12.5 6.2-17.3-1-5-6.3-7.7-12.9-6.5a31 31 0 0 0-19.3 12.6c-6.6 9.2-8 19.3-4.1 27.8 2.7 6 9 11 13.6 11 1 0 2.3.4 2.8 1 1.5 1.4 1 6-1.1 9.4-.4.6-2 1.3-4.1 1.8a17 17 0 0 0-10.2 5.7c-7 8-4.2 19.8 5.5 23.1 3.1 1 9.7 1.1 13.1 0 6.5-2 11.7-5.7 15-10.8a10 10 0 0 1 3-3.3c2.8-.9 6.8 3.4 6.8 7.2 0 1.5-.6 2.9-2.6 5.5a37.7 37.7 0 0 1-36.3 13.8zm-54-31.3c4.9-3 9-9.6 9.9-16.2.9-6.6-.8-9.7-4.6-8.5-2.9 1-5.6 5.8-7 12.7-1 4.4-1.2 13-.5 13l2.2-1zm202.9 28a28.3 28.3 0 0 1-17.5-20c-1.3-5-1.2-14.2.2-19.7a37.3 37.3 0 0 1 9-17 18 18 0 0 1 12.7-6.4c6.8-.4 11.7 3.2 13.7 9.9 3.5 11.5-5 27.4-17.4 33a14.3 14.3 0 0 0-4.4 2.6c0 1 3.2 5 5 6.4 2.7 2 7.3 3 10.8 2.7 8.2-.9 13.9-6.7 16.7-17.3 1.2-4.6 3-6.5 5.6-6 1 .2 2.3 1 3 1.8 1.3 1.4 1.3 1.8 1 5a29.4 29.4 0 0 1-20.6 25.4 36 36 0 0 1-17.8-.4zm-2.5-28.6c4.5-3 7.9-8.8 9-15.3 1.4-7.7-1.7-11.4-6.2-7.6-2.4 2-3.9 5-5.2 10.9-1 5-1.5 13.6-.6 13.6.3 0 1.6-.7 3-1.6zm79.9 28a12.5 12.5 0 0 1-4.3-4.8l-1.6-3V94.2c0-14-.2-24.3-.6-25.5-.5-1.6-.4-2.1.5-3 2.3-2.3 8.5-.8 10.4 2.4.9 1.5 1 3.9 1 23.6 0 20.8 0 22 1.1 23.8 2.9 4.7 8 1.7 11.3-6.5 2.6-6.6 2.9-10.1 2.7-29.3l-.1-18-6-.4c-6.8-.3-7.5-.6-9.1-4.4-1.2-2.5-1-5.7.3-5.8h7.8l7.3.2V37c0-11.7-.2-14.7-1-16-1-2-.3-3 2.5-3.4s6.2.6 8.2 2.5l1.6 1.6V36c0 7.9.2 14.6.4 15a244.3 244.3 0 0 0 31.6-.7c1-.3 1.3 0 1.6 1.4.4 2-1 7.5-2.4 8.6-.7.6-4.3.8-16 1l-15 .3v26c0 24.2.1 26.2 1 27.6a6 6 0 0 0 2.6 2.2c4.7 1.8 9-3.6 11.7-14.6 1.5-6.3 3.6-7.8 7-5 2.5 2.1 2.8 4.6 1.2 9.6-2.9 9.2-8 16.1-14 18.8-2.6 1.2-3.7 1.4-7.8 1.2-4.1-.2-5-.4-7.1-2-1.4-.9-3-2.6-3.6-3.7l-1.2-2.1-2.4 2.5a16.5 16.5 0 0 1-12.7 5.4c-3.8 0-4.5-.2-7-1.8zm-34.7.4a7.2 7.2 0 0 1-2.9-10.3c3-4.7 10.7-4.2 12.8.9 1 2.4 1 3.8-.1 6.1a7.3 7.3 0 0 1-9.8 3.3zm33.3-77.7a9.3 9.3 0 0 1-5.6-8.7c0-8.4 9.2-12.3 15.4-6.6 2.1 2 2.3 2.4 2.5 5.8.2 3 0 3.9-1 5.5-.8 1.1-2 2.5-3 3a11.2 11.2 0 0 1-8.3 1z"/>
</svg>
