<svg xmlns="http://www.w3.org/2000/svg"  viewBox='0 0 24 24' width="4em" height="4em">
  <path fill="maroon" d="M12 0a12 12 0 0 0-8.485 20.485A12 12 0 0 0 24 12 12 12 0 0 0 12 0z"/>
  <path fill="#fff" d="M7.018 4.255c-1.917 0-3.017 2.17-2.172 4.283.338.844.696 1.113 1.215.915.391-.15.391-.43 0-.82-.48-.481-.413-2.426.102-2.941s1.268-.525 1.729-.016c1.132 1.251.183 4.385-2.189 7.24-.476.573-.762 1.102-.693 1.281.092.24.562.255 2.096.255l2.91-.002.012-1.029c-.241-.029-1.182.028-1.924.004-1.123-.037-1.326-.005-1.195-.182l.947-1.416c2.443-3.598 2.005-7.573-.836-7.573zm9.195 0c-.275 0-.308.329-.244 2.356.064 2.019.027 2.372-.256 2.48-.423.162-.421.572.004.924.269.223.31.523.213 1.561-.14 1.496-.434 2.158-.918 2.066-.29-.055-.361-.419-.447-2.285-.087-1.888-.161-2.261-.5-2.508-.614-.448-1.124-.347-1.773.348-.527.564-.596.589-.596.219 0-.401-.971-.582-.971-.582l-.053 5.617.641.008c.369 0 .29-.025.385-1.595.108-1.796.707-3.28 1.324-3.28.417 0 .518.496.518 2.547 0 1.627.059 1.952.404 2.264.39.353.877.355 1.697.01.33-.138.357.043.357 2.243 0 2.287.161 3.079.697 3.437 1.194.797 2.426-1.106 2.455-3.795.021-1.971-.362-3.373-1.328-4.867l-.799-1.352c0-.063.509-.082 1.131-.043.932.058 1.149.007 1.242-.287.189-.598-.093-.772-1.258-.772h-1.115v-2.11c0-2.139-.144-2.603-.811-2.603zm.988 8.045c.032.013.07.068.115.152.492.914.781 2.751.703 4.463-.053 1.159-.174 1.772-.395 1.992-.175.176-.381.254-.459.176s-.14-1.717-.135-3.642c.006-2.48.032-3.198.17-3.14zM6.018 16.072l-2.119.018v.723l4.705-.078 6.451.311-.225-.41-5.322-.504-3.49-.059z"/>
</svg>